<svg width="32" height="32" viewBox="0 0 32 32" fill="none" xmlns="http://www.w3.org/2000/svg">
  <circle cx="16" cy="16" r="16" fill="#26A17B"/>
  <path d="M17.922 17.383v-.002c-.11.008-.677.042-1.942.042-1.01 0-1.721-.03-1.971-.042v.003c-3.888-.171-6.79-.848-6.79-1.658 0-.809 2.902-1.486 6.79-1.66v2.644c.254.018.982.061 1.988.061 1.207 0 1.812-.05 1.925-.06v-2.643c3.88.173 6.776.85 6.776 1.658 0 .81-2.895 1.485-6.776 1.657z" fill="white"/>
  <path d="M15.98 9.659v2.416c1.006 0 1.734.043 1.988.061v-2.477h2.85V7.741H9.182v1.918h2.85v2.477c.25.012.961.042 1.971.042 1.265 0 1.832-.034 1.942-.042V9.659h.035z" fill="white"/>
</svg>